<svg xmlns="http://www.w3.org/2000/svg" xml:space="preserve" width="538.46997" height="484.48999" viewBox="0 0 538.46997 484.49"><defs><clipPath id="a" clipPathUnits="userSpaceOnUse"><path d="M0 595.275h841.89V0H0Z"/></clipPath></defs><g clip-path="url(#a)" transform="matrix(1.33333 0 0 -1.33333 -274.716 685.12)"><path d="M0 0c0-89.727-73.494-162.486-163.881-162.486-90.53 0-163.94 72.759-163.94 162.486 0 89.585 73.41 162.187 163.94 162.187C-73.494 162.187 0 89.585 0 0" style="fill:#060709;fill-opacity:1;fill-rule:nonzero;stroke:none" transform="translate(593.277 313.09)"/><path d="M0 0c-87.828 0-159.044-70.413-159.044-157.359h39.74C-119.304-92.225-65.875-39.378 0-39.378s119.156-52.847 119.156-117.981h39.815C158.971-70.413 87.828 0 0 0" style="fill:#f15026;fill-opacity:1;fill-rule:nonzero;stroke:none" transform="translate(429.328 469.72)"/><path d="M0 0c0 65.135-53.281 117.981-119.156 117.981-65.876 0-119.304-52.846-119.304-117.981Z" style="fill:#0bb1d9;fill-opacity:1;fill-rule:nonzero;stroke:none" transform="translate(548.484 312.36)"/><path d="M0 0c-65.875 0-119.304 52.847-119.304 118.14h-39.74C-159.044 31.041-87.828-39.372 0-39.372c87.828 0 158.971 70.413 158.971 157.512h-39.815C119.156 52.847 65.875 0 0 0" style="fill:#060709;fill-opacity:1;fill-rule:nonzero;stroke:none" transform="translate(429.328 194.22)"/><path d="M0 0c65.875 0 119.156 52.847 119.156 118.14h-238.46C-119.304 52.847-65.875 0 0 0" style="fill:#fff;fill-opacity:1;fill-rule:nonzero;stroke:none" transform="translate(429.328 194.22)"/><path d="M0 0c65.875 0 119.156 52.847 119.156 118.14h-238.46C-119.304 52.847-65.875 0 0 0Z" style="fill:none;stroke:#110f0d;stroke-width:.942;stroke-linecap:butt;stroke-linejoin:miter;stroke-miterlimit:4;stroke-dasharray:none;stroke-opacity:1" transform="translate(429.328 194.22)"/><path d="m0 0-4.171-4.759-3.436 3.001 3.877 4.765c1.244 1.097 2.927-.215 2.927-.215C.735 1.685 0 0 0 0m-12.66 2.487 3.295 4.25c1.243.735 2.639-.44 2.639-.44 1.458-1.323.362-2.781.362-2.781L-9.732-.142zm9.665 2.939s1.604 3.363-.661 5.415c0 0-2.052 1.752-4.754-.153l-8.422-8.924S-17.86.446-16.979-.87l9.518-8.568s1.465-1.097 3.075.655L3.589.446s1.758 3.793-.367 5.851c0 0-2.487 2.204-6.217-.871m108.904 44.64-1.83-11.276-4.975 11.129s-.588 1.611-2.713 1.758l-3.363.141-2.854-15.95 5.274-.582 1.824 11.999 5.133-11.999s.289-1.758 3.357-1.758h2.645l2.703 15.588zm-39.96-13.17 1.831 6.868 4.759-4.974zm2.34 12s-1.899-.147-2.708-2.125l-4.392-16.035 3.589.447.73 3.583 8.489 1.972 2.346-2.701 5.488 1.097-10.835 12.887s-.582.875-2.707.875M46.777 37.038s-3.448-.142-6.008-.955c0 0-4.171-1.685-4.392.588 0 0-.44 2.56 5.2 3.589 0 0 2.634.294 3.222-1.764l4.244 1.764s-1.396 3.504-8.274 2.193c0 0-8.484-2.193-8.71-7.025 0 0-.294-4.827 6.003-4.827 0 0 3.809.728 5.052 1.164 0 0 3.951 1.028 4.907-.95 0 0 .508-2.921-4.907-3.657 0 0-3.148-.514-4.759 2.419l-4.386-1.758s2.047-3.814 6.579-3.662c0 0 11.056.294 11.643 7.902 0 0 .215 5.127-5.414 4.979m-28.329-6.143-4.171-3.155 7.167-9.144c1.103-3.222-.949-4.387-.949-4.387-4.172-2.498-5.488.136-5.488.136l-6.812 8.783-4.385-3.222 7.54-9.507c2.119-1.61 5.782-.586 5.782-.586 4.685.728 7.466 5.267 7.466 5.267 2.634 4.398 1.017 6.884 1.017 6.884z" style="fill:#fff;fill-opacity:1;fill-rule:nonzero;stroke:none" transform="translate(337.25 406.038)"/><path d="m0 0-4.171-4.759-3.436 3.001 3.877 4.765c1.244 1.097 2.927-.215 2.927-.215C.735 1.685 0 0 0 0Zm-12.66 2.487 3.295 4.25c1.243.735 2.639-.44 2.639-.44 1.458-1.323.362-2.781.362-2.781L-9.732-.142zm9.665 2.939s1.604 3.363-.661 5.415c0 0-2.052 1.752-4.754-.153l-8.422-8.924S-17.86.446-16.979-.87l9.518-8.568s1.465-1.097 3.075.655L3.589.446s1.758 3.793-.367 5.851c0 0-2.487 2.204-6.217-.871zm108.904 44.64-1.83-11.276-4.975 11.129s-.588 1.611-2.713 1.758l-3.363.141-2.854-15.95 5.274-.582 1.824 11.999 5.133-11.999s.289-1.758 3.357-1.758h2.645l2.703 15.588zm-39.96-13.17 1.831 6.868 4.759-4.974zm2.34 12s-1.899-.147-2.708-2.125l-4.392-16.035 3.589.447.73 3.583 8.489 1.972 2.346-2.701 5.488 1.097-10.835 12.887s-.582.875-2.707.875zM46.777 37.038s-3.448-.142-6.008-.955c0 0-4.171-1.685-4.392.588 0 0-.44 2.56 5.2 3.589 0 0 2.634.294 3.222-1.764l4.244 1.764s-1.396 3.504-8.274 2.193c0 0-8.484-2.193-8.71-7.025 0 0-.294-4.827 6.003-4.827 0 0 3.809.728 5.052 1.164 0 0 3.951 1.028 4.907-.95 0 0 .508-2.921-4.907-3.657 0 0-3.148-.514-4.759 2.419l-4.386-1.758s2.047-3.814 6.579-3.662c0 0 11.056.294 11.643 7.902 0 0 .215 5.127-5.414 4.979zm-28.329-6.143-4.171-3.155 7.167-9.144c1.103-3.222-.949-4.387-.949-4.387-4.172-2.498-5.488.136-5.488.136l-6.812 8.783-4.385-3.222 7.54-9.507c2.119-1.61 5.782-.586 5.782-.586 4.685.728 7.466 5.267 7.466 5.267 2.634 4.398 1.017 6.884 1.017 6.884z" style="fill:none;stroke:#fff;stroke-width:.459;stroke-linecap:butt;stroke-linejoin:miter;stroke-miterlimit:4;stroke-dasharray:none;stroke-opacity:1" transform="translate(337.25 406.038)"/><path d="M0 0s5.119-.43 6.584-.43c1.611 0 6.443.288 9.371-.729 0 0 .441-.299.582.583.289 1.028 2.922 6.002 2.922 6.002s1.471 3.945 1.322 5.121c-.14.876.442.588.442.588s.881-3.222-.442-6.885C19.459.594 19.459-.43 19.459-.43l3.074-1.028-8.195-3.804-.147 1.464S9.805-1.894 6.725-2.34c0 0-4.821.882-6.725 2.34" style="fill:#f15026;fill-opacity:1;fill-rule:nonzero;stroke:none" transform="translate(481.588 220.424)"/><path d="M0 0s4.975-1.317 6.443-1.611c1.606-.288 6.444-.735 9.078-2.34 0 0 .288-.288.723.582.442.882 3.957 5.421 3.957 5.421s2.051 3.803 2.051 4.679c0 1.029.582.588.582.588s.295-3.368-1.762-6.737c-1.754-3.216-2.047-4.239-2.047-4.239l2.928-1.605-8.777-2.345.14 1.463S9.365-3.51 6.285-3.369c0 0-4.68 1.47-6.285 3.369" style="fill:#f15026;fill-opacity:1;fill-rule:nonzero;stroke:none" transform="translate(477.342 231.847)"/><path d="M0 0s4.832-1.752 6.295-2.198c1.471-.436 6.291-1.318 8.783-3.081 0 0 .295-.288.871.593.305.735 4.25 4.833 4.25 4.833s2.489 3.651 2.647 4.68c.134.882.427.441.427.441s.295-3.516-2.044-6.584c-2.346-3.07-2.487-4.099-2.487-4.099l2.633-1.904-8.93-1.464.293 1.464S9.076-4.386 6.002-3.951c0 0-4.68 1.905-6.002 3.951" style="fill:#f15026;fill-opacity:1;fill-rule:nonzero;stroke:none" transform="translate(473.387 242.388)"/><path d="M0 0s4.973-1.752 6.438-2.198c1.468-.448 6.154-1.318 8.789-3.081 0 0 .287-.288.734.447.43.876 4.238 4.979 4.238 4.979s2.635 3.51 2.635 4.533c.146 1.029.588.588.588.588s.146-3.363-2.199-6.59c-2.188-3.075-2.487-4.092-2.487-4.092l2.639-1.911-8.783-1.458.289 1.458S9.064-4.25 6.002-3.956c0 0-4.545 1.898-6.002 3.956" style="fill:#f15026;fill-opacity:1;fill-rule:nonzero;stroke:none" transform="translate(471.193 251.465)"/><path d="M0 0s4.393-2.634 5.861-3.222c1.319-.723 5.844-2.487 8.049-4.679 0 0 .295-.442.729.294.593.723 5.273 4.091 5.273 4.091S23.129-.44 23.281.582c.295 1.023.735.446.735.446s-.588-3.368-3.522-6.155c-2.627-2.634-3.074-3.51-3.074-3.51l2.199-2.34h-8.93l.44 1.464S8.201-5.855 5.127-4.974c0 0-4.104 2.781-5.127 4.974" style="fill:#f15026;fill-opacity:1;fill-rule:nonzero;stroke:none" transform="translate(468.553 265.37)"/><path d="M0 0s2.125-4.539 2.86-6.003c.803-1.316 3.51-5.268 4.025-8.195 0 0 0-.588.949-.3.876.3 6.59.447 6.59.447s4.239.882 5.121 1.469c.734.724.734.136.734.136s-2.344-2.476-6.228-3.21c-3.877-.594-4.68-1.187-4.68-1.187l.582-3.063-7.466 4.984 1.243.871s-.44 4.68-2.413 7.167C1.317-6.884-.509-2.34 0 0" style="fill:#f15026;fill-opacity:1;fill-rule:nonzero;stroke:none" transform="translate(350.939 236.532)"/><path d="M0 0s2.046-4.827 2.854-6.149c.802-1.312 3.515-5.262 4.097-8.196 0 0 0-.588.877-.294.881.294 6.59.441 6.59.441s4.318.871 5.121 1.605c.729.594.729 0 .729 0s-2.34-2.634-6.144-3.21c-3.877-.588-4.686-1.181-4.686-1.181L9.88-20.2l-7.32 5.121 1.17.881s-.441 4.685-2.345 7.173C1.385-7.025-.441-2.486 0 0" style="fill:#f15026;fill-opacity:1;fill-rule:nonzero;stroke:none" transform="translate(356.066 244.727)"/><path d="M0 0s2.487-4.392 3.357-5.715c.882-1.311 3.957-4.973 4.765-7.901 0 0 0-.588.876-.3.803.446 6.512 1.182 6.512 1.182s4.25 1.164 4.979 1.899c.73.734.808.147.808.147s-2.125-2.782-5.935-3.81c-3.803-.87-4.611-1.606-4.611-1.606l.808-3.074-7.76 4.386 1.176 1.028s-.882 4.687-3.076 6.873C1.899-6.891-.226-2.493 0 0" style="fill:#f15026;fill-opacity:1;fill-rule:nonzero;stroke:none" transform="translate(359.507 253.37)"/><path d="M0 0s3.074-4.098 4.104-5.262c1.022-1.181 4.459-4.397 5.628-7.319 0 0 .08-.447.882 0 .876.429 6.438 1.752 6.438 1.752s4.03 1.616 4.612 2.346c.661.876.809.288.809.288s-1.764-2.934-5.421-4.386c-3.656-1.329-4.392-2.052-4.392-2.052l1.17-3.075-8.268 3.516 1.028 1.164S5.2-8.631 2.78-6.585C2.78-6.585.073-2.487 0 0" style="fill:#f15026;fill-opacity:1;fill-rule:nonzero;stroke:none" transform="translate(362.503 263.317)"/><path d="M0 0s3.368-3.951 4.465-4.974c1.176-1.029 4.832-4.251 6.228-6.89 0 0 .142-.435.944 0 .735.588 6.15 2.341 6.15 2.341s3.95 2.051 4.538 2.786c.588.87.735.294.735.294s-1.617-3.08-5.053-4.686c-3.516-1.758-4.171-2.634-4.171-2.634l1.391-2.787-8.564 2.787.955 1.17S5.86-8.207 3.295-6.443C3.295-6.443.293-2.498 0 0" style="fill:#f15026;fill-opacity:1;fill-rule:nonzero;stroke:none" transform="translate(364.697 272.106)"/><path d="m0 0 1.385.146c0-.582.073-1.028.299-1.317.141-.434.429-.734.871-1.022.44-.148 1.028-.294 1.616-.294.509 0 1.022.146 1.458.294.441.152.809.44 1.029.734.293.288.441.577.508.871 0 .299 0 .588-.146.887-.221.288-.442.435-.882.582-.283.147-.87.441-1.825.583-.951.288-1.612.446-1.973.734-.442.288-.809.582-1.029 1.024-.147.293-.147.734-.147 1.322.147.44.367 1.022.734 1.47.442.429.951.87 1.538 1.022a4.958 4.958 0 0 0 2.046.424c.808 0 1.469-.136 2.052-.424a1.611 1.611 0 0 0 1.17-1.181c.294-.435.361-1.023.294-1.605l-1.391-.152c.074.734-.073 1.18-.441 1.61-.44.306-.949.441-1.831.441-.876 0-1.464-.135-1.973-.441a1.704 1.704 0 0 1-.734-1.164c-.142-.294 0-.588.221-.876.219-.3.88-.588 1.977-.735 1.17-.447 1.9-.588 2.34-.735.515-.288.95-.734 1.176-1.17.215-.441.294-.882.215-1.464-.074-.582-.362-1.169-.735-1.757-.435-.442-1.023-.736-1.605-1.03-.735-.288-1.391-.434-2.194-.434-.955 0-1.757.146-2.339.434-.667.294-1.102.736-1.323 1.318C0-1.312 0-.724 0 0" style="fill:#060709;fill-opacity:1;fill-rule:nonzero;stroke:none" transform="translate(384.027 229.648)"/><path d="m0 0 1.752 10.683h1.47L1.464 0Z" style="fill:#060709;fill-opacity:1;fill-rule:nonzero;stroke:none" transform="translate(394.268 226.138)"/><path d="m0 0 1.758 10.683h1.39L7.467 2.34l1.39 8.343h1.323L8.422 0H6.958l-4.25 8.495L1.317 0Z" style="fill:#060709;fill-opacity:1;fill-rule:nonzero;stroke:none" transform="translate(398.218 226.138)"/><path d="m0 0 1.396-.294C.894-1.458.227-2.34-.655-2.922c-.949-.735-1.9-.882-3.001-.882-1.159 0-2.052.147-2.708.594-.656.576-1.097 1.158-1.311 2.046a6.512 6.512 0 0 0-.08 2.928c.148 1.17.521 2.046 1.103 2.922.582.876 1.243 1.469 2.125 1.904.871.435 1.82.723 2.708.723 1.095 0 1.977-.288 2.554-.87.735-.576 1.029-1.311 1.176-2.339L.446 3.81c-.073.729-.367 1.322-.807 1.752-.363.305-.951.441-1.679.441-.809 0-1.543-.136-2.199-.441-.576-.43-1.023-1.023-1.39-1.752-.368-.588-.588-1.312-.656-2.046-.147-.882-.147-1.764 0-2.346.141-.735.441-1.17.944-1.606a3.466 3.466 0 0 1 1.758-.446c.809 0 1.543.147 2.131.735C-.791-1.458-.361-.87 0 0" style="fill:#060709;fill-opacity:1;fill-rule:nonzero;stroke:none" transform="translate(417.317 229.795)"/><path d="m0 0 1.752 10.683h7.754l-.14-1.317H2.995l-.586-3.211h5.933l-.146-1.322H2.194L1.605 1.17h6.591L8.038 0Z" style="fill:#060709;fill-opacity:1;fill-rule:nonzero;stroke:none" transform="translate(419.962 226.138)"/><path d="m0 0-1.818-10.981h-3.008l1.17 7.325c-.502-.447-1.024-.736-1.532-1.024-.519-.158-1.175-.446-1.832-.588l.362 2.488c1.109.288 1.978.734 2.566 1.164.656.441 1.17.882 1.617 1.616z" style="fill:#060709;fill-opacity:1;fill-rule:nonzero;stroke:none" transform="translate(442.129 236.973)"/><path d="M0 0c.146.582 0 .876-.221 1.316-.215.294-.502.436-1.023.436-.373 0-.729-.142-1.027-.436-.295-.298-.51-.734-.657-1.316-.068-.588 0-1.023.221-1.323.221-.435.514-.435.955-.435.367 0 .797 0 1.096.288.369.288.588.882.656 1.47m-6.297-4.839 3.076.447c0-.447.078-.735.225-1.029.142-.152.357-.152.588-.152.504 0 .949.152 1.312.734.215.289.508 1.024.809 2.199-.436-.441-.883-.588-1.33-.881-.356-.147-.791-.147-1.311-.147-.949 0-1.683.299-2.265 1.028-.516.724-.662 1.458-.516 2.64.068.582.367 1.316.803 1.898a4.764 4.764 0 0 0 1.605 1.318c.662.288 1.397.44 2.346.44 1.101 0 1.916-.152 2.492-.588.588-.293 1.029-.88 1.244-1.752.287-.734.287-1.762.078-3.074C2.486-3.815 1.91-5.127.961-6.155c-1.029-.87-2.205-1.312-3.668-1.312-.883 0-1.543.142-1.973.288-.441.154-.881.448-1.095.876-.295.442-.442.882-.522 1.464" style="fill:#060709;fill-opacity:1;fill-rule:nonzero;stroke:none" transform="translate(450.404 233.316)"/><path d="M0 0c0-.294 0-.582.215-.882.215-.146.508-.288.877-.288.367 0 .66.142.955.288.215.3.361.588.43.882 0 .294 0 .734-.215.87-.149.3-.442.446-.803.446-.367 0-.656-.146-.955-.446C.215.734.068.294 0 0m-.881-4.686c-.148-.446 0-.735.219-1.023.215-.294.504-.446.951-.446.367 0 .66.152 1.022.446.373.288.587.735.587 1.023.149.582 0 1.023-.214 1.317-.225.294-.52.441-.961.441a1.43 1.43 0 0 1-1.016-.441c-.369-.294-.521-.735-.588-1.317m-.736 2.634c-.514.288-.729.447-.949.735-.227.435-.227 1.023-.227 1.611.158.734.736 1.47 1.611 2.046.809.582 1.686.734 2.787.734 1.458 0 2.418-.288 3.075-.881.582-.588.802-1.165.656-2.047-.074-.44-.283-.881-.656-1.316-.221-.3-.588-.594-1.096-.882.576-.288.943-.734 1.096-1.17.215-.441.295-.882.215-1.464-.079-.582-.293-1.023-.657-1.605-.293-.446-.654-.734-1.027-1.022-.436-.294-.871-.448-1.459-.594-.588 0-1.176-.142-1.752-.142-1.182 0-1.979.142-2.498.442-.582.294-1.029.582-1.164 1.164-.295.44-.295 1.175-.227 1.757.075.582.362 1.17.735 1.611.361.289.808.735 1.537 1.023" style="fill:#060709;fill-opacity:1;fill-rule:nonzero;stroke:none" transform="translate(458.023 233.898)"/><path d="M0 0h-9.004c.293.882.734 1.752 1.397 2.486.66.736 1.757 1.758 3.435 2.787A9.17 9.17 0 0 1-2.34 6.737c.367.288.582.729.582 1.018 0 .299 0 .588-.215.887-.226.135-.515.294-.882.294-.368 0-.723-.159-.956-.294-.287-.299-.502-.735-.728-1.317l-2.928.288c.221.73.52 1.464.955 1.9.356.446.877.734 1.537 1.028.582.288 1.397.44 2.414.44 1.09 0 1.827-.152 2.272-.44.576-.147 1.023-.582 1.312-1.028.147-.577.293-1.024.147-1.758 0-.583-.295-1.165-.883-1.9-.43-.582-1.164-1.169-2.418-1.899-.656-.446-1.092-.734-1.312-.887-.215-.135-.508-.429-.797-.583H.287z" style="fill:#060709;fill-opacity:1;fill-rule:nonzero;stroke:none" transform="translate(472.363 225.991)"/><path d="M0 0c-.289-1.097-2.477-4.466-19.318-7.1C-12-4.759-6.432-1.097-3.211 3.877-1.164 2.271 0 .655 0 0m-2.635 25.762c-.429.509-.869 1.023-1.164 1.39 1.752 1.752 9.072 9.801 8.485 14.493-.877 4.832-4.387 6.731-9.073 8.489-3.955 1.464-15.955 5.709-27.66-4.245-1.9 1.17-4.398 1.464-6.738 1.317 5.127 10.389-2.486 17.273-10.682 16.103-7.607-1.17-15.814-6.302-19.318-19.178-1.25 0-2.42-.147-3.528-.361-.068 3.436-6.58 15.08-25.904 4.894-4.17 6.003-14.564 4.104-27.587-5.409-.667 7.025-18.448 11.412-29.94 7.467-7.319-2.493-17.86-7.032-24.739-19.766.441 1.17 1.905 6.879 0 8.195 2.193 2.052 3.369 4.98 3.369 8.789 0 5.41-4.833 13.023-13.983 13.023-8.563 0-14.786-5.483-14.786-13.023 0-2.644.882-5.278 2.493-7.325-3.296-1.752-16.617-7.166-16.465-14.78.142-7.46 5.482-8.93 5.482-8.93-1.831-4.539-5.052-10.473-4.827-14.634.294-3.956 2.996-13.027 14.567-11.642 11.563 1.385 12.439 3.368 18.374 6.07 4.974-9.801 19.025-5.109 23.343-2.34 4.759-7.167 19.398-3.002 28.984 5.126 2.928-9.365 16.098-7.607 21.366 1.17 2.57-15.368 24.377-8.929 30.814-1.904 5.053-14.928 24.678-5.121 33.02 1.758 1.605-3.946 9.505-8.049 14.627-8.631-17.997-1.758-66.965-2.787-73.047-2.634-29.12.288-82.114 2.04-138.036-7.325-19.827-3.222-65.281-13.034-73.77-15.956-18.811-6.15-9.666-19.612.655-21.224 7.325-1.17 21.817-8.777 27.447-15.956 7.539-9.665 16.984-7.46 25.18-.876 8.71 7.161 51.377 30.883 106.276 31.906 16.244.294 82.113 2.488 110.957 4.386 28.836 1.764 73.912 6.891 75.381 31.483.876 16.39-11.995 26.717-29.573 30.08" style="fill:#211d1d;fill-opacity:1;fill-rule:nonzero;stroke:none" transform="translate(535.887 302.04)"/><path d="M0 0c-.661-4.313-21.444-12.226-24.739-9.004-1.979 2.046-.656 8.783-.068 11.417C-21.958-4.979-9.004-1.679 0 0m49.772 56.65c-3.215 3.149-12.734 10.468-30.448 7.981-38.06-5.12-71.51-37.253-78.095-64.411-6.877-28.102 15.222-35.127 25.91-34.399h-.074c-9.224-2.34-26.497-12.146-22.393-22.981 3.583-9.518 27.152-11.135 55.107 7.608 13.69 9.224 23.349 23.275 28.035 38.502 5.415 17.855 8.93 20.488 13.028 21.738 8.054 2.418 8.054 16.47-2.119 16.029-10.028-.588-37.914-3.074-41.284-3.228-3.074-.428-8.85-3.216-17.205-8.483 5.568 7.901 13.837 19.172 32.5 24.587 5.495 1.616 8.49-1.979 9.151-3.211 2.125-3.956 7.834-6.59 13.537-5.426 8.274 1.611 18.375 9.813 18.957 16.844.294 2.774-1.458 5.844-4.607 8.85" style="fill:#211d1d;fill-opacity:1;fill-rule:nonzero;stroke:none" transform="translate(285.652 317.114)"/><path d="M0 0c.582 1.458 4.393-.294 5.273-3.075C4.393-2.047-.869-1.391 0 0m-10.682-16.25c1.899-2.493 5.996-1.023 7.313-5.268.736-1.905-7.76-.587-7.313 5.268m-15.375 2.052c-1.468 1.458-6.877.434-8.341-.882 1.752 4.392 3.957 10.026 3.957 10.026l6.148.509 5.557 3.957c-.582-3.222-.289-7.031.582-8.196-1.459.068-7.903-5.414-7.903-5.414m-29.785 3.945c-1.471-.803-8.275-4.392-8.275-4.392l2.859 7.325c.442-.435 4.682-.141 7.61-.141-.215-1.182-.797-2.058-2.194-2.792m-61.919-4.527 4.754 12.434c-.582-2.414 2.419-5.709 6.37-5.561-.368-1.024.661-.809-11.124-6.873m-23.055-.661-3.516-1.979c3.804 12.875 7.908 16.097 9.292 16.097zm155.162 5.346c-1.164 2.34-2.928 3.504-4.387 4.68 3.223-.152 6.432 6.296 9.365 10.683 2.934 4.239-2.051 7.031-5.709 8.421-5.408 1.978-16.248 5.629-27.09-5.494-.576 2.922-4.38 3.516-11.406 2.046 7.315 13.611.588 17.42-5.56 16.685-6.163-.87-13.77-6.947-16.979-18.946-4.685 0-6.738-.079-8.568-2.418 1.095 13.756-13.537 12.445-24.373 5.855-3.075 7.901-12.078 4.974-30.595-7.834 2.922 6.218.294 7.11-1.023 7.98-5.199 3.658-15.227 5.709-25.694 2.126-8.557-2.996-19.681-10.467-25.977-29.357a491.48 491.48 0 0 1-7.834-3.368c6.952 16.622 9.734 22.031 5.782 25.841 3.07 1.469 4.465 3.888 4.465 7.98 0 4.093-3.589 9.959-10.835 9.959-7.167 0-11.711-4.397-11.711-9.959 0-3.368 1.905-6.437 4.759-8.195-8.195-3.662-18.809-10.106-18.663-13.763.073-5.267 4.171-6.516 6.664-6.591-1.984-5.272-5.194-11.851-5.273-16.684 0-4.686 3.148-9.077 10.32-8.642 7.1.588 13.837 4.104 20.416 7.178 3.81-13.181 21.964-3.222 22.692-2.78 5.562-8.491 16.832-2.929 29.719 5.996 1.758-11.711 12.367-7.76 15.289-3.736.735.961 3.075 3.448 11.276 23.575.734.514 1.752 1.102 2.707 1.684-3.221-7.907-6.143-16.55-6.736-21.235-.657-4.601 2.939-12.141 12.886-9.8 6.59 1.537 9.077 3.729 17.047 8.777 1.549-15.368 17.793-9.365 31.844 1.611 6.002-10.75 19.178-11.705 25.033-10.242C5.563-35.722 12-30.884 14.639-25.039c4.386-2.188 8.054-6.003 7.32-8.777-2.346-10.983-46.551-12.735-95.662-13.323-20.787-.294-86.216 2.781-152.018-7.031-19.76-2.916-64.847-14.051-72.969-16.684-12.593-4.099-9.659-12.289-1.028-13.758 7.392-1.176 24.01-8.636 30.521-16.837 7.54-9.507 14.051-6.585 19.545-1.453 12.514 11.711 57.459 33.222 109.345 32.635 18.742-.294 82.633 3.809 131.819 6.884C9.518-62.354 42.154-54.6 42.154-37.406c0 13.983-10.83 24.519-27.808 27.311" style="fill:#f15026;fill-opacity:1;fill-rule:nonzero;stroke:none" transform="translate(516.861 335.195)"/><path d="M0 0c-2.924 9.659-15.951 8.189-15.951 13.463-.153 5.561 8.789 8.783 14.638.441 2.047 3.222 5.999 8.342 5.999 8.342-6.145 1.911-12 5.709-19.473 1.611-7.166-3.957-11.711-10.755-9.067-17.272C-21.512.067-10.102 2.78-8.92-7.613c.576-6.303-14.644-10.983-18.742 8.483-3.809-2.775-9.365-6.511-9.365-6.511 1.463-11.485 14.056-15.147 21.371-13.395C-9.213-17.284.445-13.181.588-4.251c6.301-.587 16.254-7.607 15.666-15.509C15.078-32.059-7.461-36.598-84.387-37.332c-75.681-.876-72.527 3.363-151.357-7.025-19.765-2.782-64.92-14.346-72.166-16.539-7.319-2.199-5.928-3.363-1.243-4.543 4.607-1.16 25.101-7.897 33.155-18.732 3.804-4.974 5.195-6.585 12.514-.582 15.221 12.44 60.754 34.246 112.572 33.658 31.104-.288 128.224 6.738 136.125 7.325 8.207.441 40.994 7.026 41.283 20.935C26.789-9.298 14.496-1.47 0 0m-183.196 23.999c3.595 0 6.444 2.345 6.444 5.278 0 2.855-2.849 5.195-6.444 5.195-3.584 0-6.438-2.34-6.438-5.195 0-2.933 2.854-5.278 6.438-5.278m23.128-26.927c1.979 8.49 6.884 25.174 21.155 20.415l-8.709-22.755c-12.294-5.2-14.345-6.149-12.446 2.34m-40.107 8.704c2.633 1.176 6.511 2.567 6.511 2.567l-7.461-19.913s-3.876-9.072 3.952-8.342c6.957.734 22.183 8.342 25.394 10.02-2.996-19.894 21.161-2.995 21.161-2.995 0-12.367 13.096-5.63 34.614 9.959-2.125-5.64-3.295-9.303-3.001-10.988.661-2.843 3.724-4.386 6.804-1.022 2.419 2.786 8.496 17.572 10.982 23.863 13.463 8.201 17.715 10.099 14.119 3.153-3.73-7.251-9.433-23.648-9.433-25.688 0-2.204-.072-7.032 7.094-5.426C-83.877-17.86-69.521-8.049-63.525-3.81c-2.051-5.709-3.289-9.8-2.934-11.485 1.465-7.686 11.564-3.741 27.527 8.27 3.516 2.774-1.906 3.509-4.252 2.187-1.898-1.165-11.123-5.845-11.123-5.845 2.635 6.726 6.151 16.103 9.366 24.587 4.257.441 7.625.735 8.937.735 1.457 1.164 7.754 5.997 7.754 5.997s-7.025-.582-14.639-1.464a804.149 804.149 0 0 1 4.985 12.378c3.945 9.134-9.383 5.341-13.475-4.917-1.17-2.844-2.191-5.709-3.357-8.631-4.256-.446-7.471-.735-8.207-.876-1.389-1.176-5.555-4.251-7.026-5.636 2.346 0 7.467.515 13.03 1.091-1.606-3.944-3.149-7.754-4.534-11.117-20.494-10.983-22.693-12.881-20.941-7.467 4.838 14.192 11.863 26.491 10.547 29.572-.875 2.193-4.975 5.708-25.547-6.737 2.853 7.093 4.029 11.857-7.025 5.856-11.565-6.218-15.369-8.196-14.278-10.243 1.102-2.204 7.467 1.165 9.885 2.341-1.972-4.839-3.803-9.078-5.267-12.734-22.761-12.735-23.79-12.735-22.468-9.598.95 2.419 11.124 29.719 11.124 29.719-8.71 6.076-35.207 6.009-44.945-26.853a4179.43 4179.43 0 0 1-16.098-6.89c-2.192-.729-3.368 0-2.634 2.34.73 2.205 8.343 21.376 9.366 24.016.877 2.634-1.023 5.702-3.657 4.238-4.539-2.486-16.617-8.919-18.375-9.947-3.442-1.905-1.023-4.544 1.611-3.301" style="fill:#231f20;fill-opacity:1;fill-rule:nonzero;stroke:none" transform="translate(527.545 320.703)"/><path d="M0 0c-53.209-6.591-92.954-68.656-69.826-86.511 6.003-4.539 16.617-10.106 42.82-1.029-4.833-8.048-9.665-11.857-15.012-11.123-15.074 2.193-34.178-11.271-30.369-18.29 6.585-12.299 62.654-2.058 76.993 45.363 5.274 17.353 9.518 21.97 15.448 23.863 6.002 2.131 4.385 10.107-.882 9.665-10.027-.802-38.356-2.927-41.713-3.215-3.441-.288-14.424-7.614-17.793-9.66-3.51-2.204-3.221-8.783 3.59-8.783.514-.079 9.738.509 21.076 2.046-.294-1.176-1.458-5.861-1.831-7.246-19.827-12.954-26.491-8.931-28.47-7.98-6.879 3.227-1.385 43.181 38.208 54.598C-.588-16.256 4.465-21.67 5.708-24.01c4.681-8.93 24.813 2.34 25.615 10.1C31.765-9.225 21.224 2.486 0 0" style="fill:#f15026;fill-opacity:1;fill-rule:nonzero;stroke:none" transform="translate(305.418 378.377)"/><path d="M0 0c-2.34 1.685-8.049 5.924-24.22 4.318-16.176-1.61-39.745-14.786-54.458-32.205-14.785-17.42-20.346-35.134-11.19-44.651 8.85-9.072 27.728-6.003 49.913 3.226-6.008-14.05-13.469-25.914-25.18-24.597-11.496 1.181-20.494-5.262-25.175-11.999 10.751-3.951 27.227 1.758 33.958 4.973 7.099 3.516 28.035 19.026 33.744 39.966C-16.979-39.892-7.682-34.33-3.511-33.596c-10.099-.588-41.276-3.08-41.276-3.08l-14.786-8.925s13.983.803 28.543 3.216c-2.849-6.002-2.995-9.58-4.827-16.096-39.519-26.351-46.404-1.324-35.789 20.782 11.124 22.987 29.424 30.453 39.96 33.382 10.615 2.927 15.294-2.929 18.664-7.394 3.368-4.465 12.88 2.849 15.368 4.754C4.69-5.053 4.544-3.289 0 0" style="fill:#231f20;fill-opacity:1;fill-rule:nonzero;stroke:none" transform="translate(328.026 368.938)"/><path d="M0 0s1.243 6.149 6.59-.44c0 0 3.657-5.347-.588-11.926 0 0 8.275 4.171 8.122 14.785 0 0 0 8.422-8.709 13.316 0 0-7.173 4.471-13.102-2.854C-7.687 12.881-14.419 0 0 0" style="fill:#fff;fill-opacity:1;fill-rule:nonzero;stroke:none" transform="translate(352.33 366.519)"/><path d="M0 0s1.243 6.149 6.59-.44c0 0 3.657-5.347-.588-11.926 0 0 8.275 4.171 8.122 14.785 0 0 0 8.422-8.709 13.316 0 0-7.173 4.471-13.102-2.854C-7.687 12.881-14.419 0 0 0Z" style="fill:none;stroke:#fff;stroke-width:.459;stroke-linecap:butt;stroke-linejoin:miter;stroke-miterlimit:4;stroke-dasharray:none;stroke-opacity:1" transform="translate(352.33 366.519)"/><path d="M0 0s7.105 17.578 14.419 12.893c0 0 1.831-3.08-3.657-5.42 0 0-11.423-5.709-13.763-15.956 0 0 4.98 6.143 8.349 7.692 0 0 4.171 1.605 8.341 2.261 0 0 7.908 1.611 9.513 7.177 0 0 2.928 6.297-3.73 6.879 0 0 0 4.974-5.121 4.974 0 0-9.372-.288-14.351-20.5" style="fill:#fff;fill-opacity:1;fill-rule:nonzero;stroke:none" transform="translate(366.454 353.044)"/><path d="M0 0s7.105 17.578 14.419 12.893c0 0 1.831-3.08-3.657-5.42 0 0-11.423-5.709-13.763-15.956 0 0 4.98 6.143 8.349 7.692 0 0 4.171 1.605 8.341 2.261 0 0 7.908 1.611 9.513 7.177 0 0 2.928 6.297-3.73 6.879 0 0 0 4.974-5.121 4.974 0 0-9.372-.288-14.351-20.5Z" style="fill:none;stroke:#fff;stroke-width:.459;stroke-linecap:butt;stroke-linejoin:miter;stroke-miterlimit:4;stroke-dasharray:none;stroke-opacity:1" transform="translate(366.454 353.044)"/><path d="M0 0s-8.93 9.507-2.934 20.415c0 0 4.104 7.54 11.129 5.924 0 0 9.371-2.34 6.885-10.242 0 0-.441 1.464-2.781 1.464 0 0-3.522-.22-3.522-3.222 0 0 0-3.95 3.957-3.95 0 0 5.569-.288 6.145 7.392 0 0-.289 11.344-12.871 11.344 0 0-12.303-1.023-13.762-15.074 0 0-.08-8.789 6.578-15.373z" style="fill:#fff;fill-opacity:1;fill-rule:nonzero;stroke:none" transform="translate(473.826 359.205)"/><path d="M0 0s-8.93 9.507-2.934 20.415c0 0 4.104 7.54 11.129 5.924 0 0 9.371-2.34 6.885-10.242 0 0-.441 1.464-2.781 1.464 0 0-3.522-.22-3.522-3.222 0 0 0-3.95 3.957-3.95 0 0 5.569-.288 6.145 7.392 0 0-.289 11.344-12.871 11.344 0 0-12.303-1.023-13.762-15.074 0 0-.08-8.789 6.578-15.373z" style="fill:none;stroke:#fff;stroke-width:.378;stroke-linecap:butt;stroke-linejoin:miter;stroke-miterlimit:4;stroke-dasharray:none;stroke-opacity:1" transform="translate(473.826 359.205)"/><path d="M0 0s-8.648 19.472-20.201 19.472c0 0-7.256-.887-7.834-7.105 0 0-.147-5.341 5.416-6.364 0 0 2.34-.294 3.582 1.311 0 0-2.481 4.104 3.658 4.692 0 0 6.731 1.604 13.108-11.135 0 0 1.175-1.82 2.271-.871" style="fill:#fff;fill-opacity:1;fill-rule:nonzero;stroke:none" transform="translate(470.537 355.542)"/><path d="M0 0s-8.648 19.472-20.201 19.472c0 0-7.256-.887-7.834-7.105 0 0-.147-5.341 5.416-6.364 0 0 2.34-.294 3.582 1.311 0 0-2.481 4.104 3.658 4.692 0 0 6.731 1.604 13.108-11.135 0 0 1.175-1.82 2.271-.871z" style="fill:none;stroke:#fff;stroke-width:.378;stroke-linecap:butt;stroke-linejoin:miter;stroke-miterlimit:4;stroke-dasharray:none;stroke-opacity:1" transform="translate(470.537 355.542)"/><path d="m0 0 3.074-3.511-8.716-8.342s-.288-1.023.373-1.611l4.613-4.974-1.47-1.322-7.607 8.196s-.809 1.763.141 2.792z" style="fill:#fff;fill-opacity:1;fill-rule:nonzero;stroke:none" transform="translate(325.471 229.648)"/><path d="m0 0-.949-1.616 4.973-2.928-6.296-10.829 4.103-2.781L8.489-7.025l5.054-3.08.949 1.61z" style="fill:#fff;fill-opacity:1;fill-rule:nonzero;stroke:none" transform="translate(357.088 203.162)"/><path d="m0 0-.588-1.899 5.709-1.605-3.363-12.152 4.539-1.606 3.73 12.447 5.635-1.764.515 1.899z" style="fill:#fff;fill-opacity:1;fill-rule:nonzero;stroke:none" transform="translate(378.385 191.587)"/><path d="m0 0 1.605-1.029L4.973 3.81l10.541-6.89L18.447.876 7.607 8.049l3.37 4.826-1.606 1.029z" style="fill:#fff;fill-opacity:1;fill-rule:nonzero;stroke:none" transform="translate(532.383 234.192)"/><path d="m0 0-12.876.441s-1.616-.147-1.758-3.216l-.22-9.812s.074-1.893 2.561-2.052l11.49-.435.148 1.905-7.609.44s-1.684-.146-1.762 1.606l.078 3.804 9.445-.288v1.899l-9.083.44-.067 2.634s-.148 1.176 2.192 1.024l7.388-.289z" style="fill:#fff;fill-opacity:1;fill-rule:nonzero;stroke:none" transform="translate(416.368 183.832)"/><path d="m0 0 4.246 1.459s-1.17 2.928-7.094 2.928c0 0-9.078-.588-10.257-8.937 0 0-.364-7.749 8.052-8.043 0 0 6.658.148 7.84 4.251l.576-1.323 4.399 1.323-1.901 5.844s-.152 1.47-3.232.588L-3.08-3.662l.373-1.764L1.25-4.25s1.379-5.415-3.809-5.855c0 0-4.839 0-5.642 5.126 0 0-.949 6.002 3.437 7.161 0 0 2.346.593 4.764-2.182" style="fill:#fff;fill-opacity:1;fill-rule:nonzero;stroke:none" transform="translate(469.287 186.036)"/><path d="m0 0 8.055-12.011 4.103 2.498L3.951 2.775Z" style="fill:#fff;fill-opacity:1;fill-rule:nonzero;stroke:none" transform="translate(480.705 194.52)"/><path d="m0 0-.576 7.025 5.855-3.069Zm.893 11.423s-1.469 1.023-3.233-.588l-.871-.734 1.459-16.974L.594-5.115.453-1.894l6.731 4.828 3.076-1.618 3.797 2.788zm-159.999-5.268c-3.295-4.397-7.76-1.469-7.76-1.469-3.59 3.521.582 8.495.582 8.495 3.81 3.951 7.472.876 7.472.876 3.075-2.928-.294-7.902-.294-7.902m1.464 9.513s-6.737 5.12-12.005.593c0 0-6.37-6.16 1.097-12.604 0 0 5.782-4.816 10.981-2.041 0 0 4.754 2.041 4.172 8.196 0 0-1.029 3.804-4.245 5.856" style="fill:#fff;fill-opacity:1;fill-rule:nonzero;stroke:none" transform="translate(503.387 196.273)"/><path d="M0 0s-2.633-1.605-.293-3.51l8.789-8.936L12-8.919 3.811-.871 15.08-3.51s1.899-.594 2.781.435l2.057 2.052s.576.587-.594 1.611L9.959 9.959 6.738 6.737l7.465-7.314L3.811 1.47s-2.047.44-2.495-.289z" style="fill:#fff;fill-opacity:1;fill-rule:nonzero;stroke:none" transform="translate(516.861 218.084)"/><path d="m0 0 1.023 3.815s-2.921.876-4.822-2.492c0 0-2.051-2.635-2.639-8.196 0 0 0-5.12 3.958-5.12 0 0 3.367-.588 5.119 3.809 0 0 2.193 6.138 4.681 6.432 0 0 1.752 0 1.176-3.368 0 0-1.318-5.563-5.133-4.681L2.34-13.757s3.521-1.029 6.008 3.074c0 0 2.488 3.37 2.34 9.225 0 0-.43 5.121-5.856 4.25 0 0-2.34-.882-4.244-5.42 0 0-1.465-5.121-3.51-4.685 0 0-2.346.293-.588 4.973 0 0 .875 2.498 3.51 2.34" style="fill:#fff;fill-opacity:1;fill-rule:nonzero;stroke:none" transform="translate(552.283 263.606)"/><path d="M0 0c3.369 1.164 67.475 19.686 73.049 20.997 5.555 1.322 7.607.661 3.656-5.047.725-3.584-.734-4.833-5.861-9.077C68.068-.153 57.67-14.204 21.953-24.31 19.031-31.477 1.023-52.848-.445-54.312c-2.916-7.025-10.836-15.661-10.836-15.661.888-1.323 3.08-6.732 3.08-6.732 10.389-1.322 19.467-3.956 19.467-3.956s5.42-1.611 1.322-7.325c0-3.504-3.08-5.923-3.662-7.681-.735-1.82-3.946-3.437-3.946-3.437-.294-2.487-2.792-5.279-6.296-5.279-.887-2.261-3.957-3.211-5.573-3.211-1.453.148-2.922-1.389-5.121-2.052-2.193-.582-4.386 0-5.121 1.318-.588 1.39-3.945 2.193-4.533 3.73-.588 1.537 1.018 9.886 1.018 9.886-2.34 2.119-2.194 6.144-4.385 6.726-2.194.446-2.93 2.933-2.342 4.979-2.057.594-3.221 2.204-3.221 2.204-6.15-1.762-15.226-1.395-16.978-.593-6.297-2.199-22.992-5.047-30.817-4.833-29.718-25.467-47.431-28.542-51.455-25.027-8.998-4.544-9.659-.147-9.659-.147-3.952-2.487-8.349.882-3.511 4.245 4.827 3.369 55.108 49.326 55.108 49.326s6.076 7.325 11.203 5.866c5.187-1.47 15.734-3.814 29.131 2.046.582 5.415-3.811 7.902-4.393 12.147-.594 4.251-2.346 7.754-6.59 11.71-4.244 3.958-6.517 9.807-.435 8.785 6.002-1.03 8.777-8.055 17.566-8.343 8.631-.294 5.697-7.766 14.481-11.423 10.107 5.861 15.08 18.736 16.843 27.52C-8.053-.735-3.361-1.023 0 0" style="fill:#211d1d;fill-opacity:1;fill-rule:nonzero;stroke:none" transform="translate(531.064 492.267)"/><path d="M0 0c0-1.826 1.182-1.685 1.764-2.267.871-1.028 1.459-2.339 2.634-1.763 1.165.525 1.165-1.679.577-2.34-.725-.436.304-1.606-1.164-3.289-1.471-1.685-2.34-.368-3.957-.95-1.752-.588-2.487 2.554-2.776 3.369-.152.87-2.346 2.34-3.521 4.16-1.164 1.842-.135 3.153.3 3.301.434.146.588.728.141 1.175-.141.141-1.164 1.238.293 2.555C-4.104 5.635.158.949 0 0m70.414 87.912c-2.787-.158-13.021-4.103-14.492-1.616-1.463 2.046-43.035-9.665-46.262-10.829-3.07-1.176-5.998-2.346-6.291-7.32-.435-4.979-6.578-18.737-9.512-22.105-3.07-3.369-6.878-6.297-8.484-6.591-1.764-.294-2.635-2.486-2.635-2.486 0 1.464.871 1.752 0 2.486-.892.73-3.232.882-4.396 2.634-1.176 1.464-3.811 6.149-5.862 7.394-.435-.657-1.316-1.685-2.345-1.097-1.024.44-1.164 1.322-1.448 2.046-.593.3-.892.3-1.328.3-.588-.153-.14-1.182-.14-1.758 0-.588.576-.294.576-1.03 0-.582 0-.734-1.453-.801-1.469-.069-4.838-1.538-5.42-2.855-.152-1.47.135-4.539 1.898-7.319 1.764-2.781 3.076-6.003 3.223-8.343.146-2.272 1.463-5.997 1.752-6.443-.871 1.023-2.047 1.531-1.752 1.831.299.22.588.068.146.661-.441.588-1.029.724-1.605.43-8.637-3.946-23.5-3.369-27.74-1.685-3.588 1.255-4.024.521-5.494-.361-5.42-3.504-32.053-29.199-36.444-32.499-2.052-1.459-2.498-2.635-3.007-3.211-.509-.588-1.538-2.272 4.532.576-13.315-10.976-18.069-15.509 2.42-3.21-7.02-5.709-5.054-6.002-6.732-7.319-1.678-1.329-5.85-4.838-1.678-3.295 3.804 1.379 9.517 5.776 11.338 7.534-6.071-6.585-1.979-4.974-4.098-7.105-1.317-1.311-4.312-3.866-.944-2.708 3.357 1.249 8.704 7.258 8.704 7.258-1.537-4.03-5.562-8.128.442-4.324-.51-.949-1.539-1.91.734-.73 2.26 1.239 19.906 11.712 26.051 18.874 10.971.158 26.943 2.712 31.035 4.685 3.957-1.611 12.434-.424 13.756-.142 1.324.294 1.465.735.588 1.758-.588 1.17-1.469 3.589-1.469 3.589C-21.076-.068-15.08-4.9-11.998-4.239c-1.023 2.119 0 3.578 1.316 3.436 1.317-.146 3.369-2.702 3.946-3.589.734-.796.293-2.193-.871-2.339-1.176-.075-.881-.373 0-.662 1.029-.435 2.634-2.481 3.503-2.187 1.182.288 1.618 1.022 1.618-.447 0-1.464-1.311-1.893-.723-2.187.576-.441-.447-3.521-1.764-2.933-1.318.592-1.763-3.076-1.763-3.804 0-.736-2.047-8.207-.43-8.931 1.611-.882 2.486.588 2.486.588 1.17-2.34 2.922-2.781 4.975-2.492 1.904.152 1.904 2.922 1.904 2.922 2.199-2.34 3.957-2.261 6.008-1.318 1.752.888 1.453 2.934 1.453 2.934 2.934-1.028 6.59 1.616 6.449 5.561 2.627 0 4.973 3.216 4.68 5.562 2.193.735 3.221 3.363.734 4.387 3.663.158 4.239 3.814 1.764 5.052C20.789-3.437 2.934 0 2.934 0c-.735 3.001-3.51 7.839-3.51 7.839 1.459 1.165 8.783 9.948 11.705 16.974 7.467 8.195 19.906 22.913 22.4 29.718 9.811 2.046 23.864 7.975 24.598 8.275.723.362 1.018.949.287 1.029-.734.209-1.758.209-2.203 0-.289-.238-1.318.209.588.655 2.051.576 9.222 4.319 5.273 3.504.735.882 2.34 2.634-7.613 1.176 16.396 4.098 15.221 5.561 12.734 5.121-3.658-.735-3.369-.147-2.488.882.582 1.028-6.885-.656-10.246-1.318 9.219 2.776 19.906 6.659 12.01 6.659 2.041 3.295-3.233-.288-14.057 0 13.027 3.436 19.318 4.606 20.195 6.664.594.87.594 1.017-2.193.734M-27.66 49.546c-.149.158-.442.158-.442.158-.146-.294-.441-.734-.734-.949.44.067.881.288 1.176.791" style="fill:#fff;fill-opacity:1;fill-rule:nonzero;stroke:none" transform="translate(519.201 415.042)"/><path d="M0 0c-.445.067-1.021.209-1.469.135-5.996-3.436-23.129-6.369-25.91-6.805-2.932-.588-.588-1.464 0-1.616.594-.136-3.803-7.167-6.584-10.242-2.781-3.222-16.244-15.955-17.273-16.549 0 0 1.029-2.04 1.029-3.363 0 0-1.176 2.051-2.203 1.91.586-.881.734-5.493-.295-8.201.158.877 0 3.521-.871 4.312-1.028-2.774-1.317-8.116-6.596-11.185-1.164 2.628-3.51 4.821-4.978 6.726-.577-6.143 3.814-13.175 4.978-13.752 1.024-.734 3.229-3.368 3.229-4.838 0-1.39.728-1.763 1.752-2.052.728-.141 9.076-3.363 11.416-4.685 0 0-3.663.735-3.075-.734.588-1.606 2.057-1.9 3.37-3.946-.436 0-1.752.441-3.223.735-1.606.147 1.471-3.075 1.91-3.663.43-.577.43-.881 0-.735-.439.158-.734.158-2.203.588-1.459.441.881-.876.588-2.634-.143-1.752-3.799-3.95-4.828-3.662-.881.158-1.311-1.311-3.227-1.973-1.898-.734-2.48-.073-2.922.215-.582.447-.447-.141-.734-.582-.295-.441-1.164.153-2.34-.441-1.324-.43-1.324 1.911-1.324 2.781-.141.735-.428.882-.735.158-.134-.735-.429-.446-.287 1.018 0 1.458.287 3.074-.435 4.098h-.147c-1.318.592-1.763-3.076-1.763-3.804 0-.735-2.047-8.207-.43-8.931 1.611-.882 2.486.588 2.486.588 1.17-2.34 2.922-2.781 4.975-2.492 1.904.152 1.904 2.922 1.904 2.922 2.199-2.34 3.957-2.261 6.008-1.318 1.752.888 1.453 2.934 1.453 2.934 2.934-1.028 6.59 1.616 6.449 5.562 2.627 0 4.973 3.215 4.68 5.561 2.193.735 3.221 3.363.734 4.387 3.662.158 4.239 3.814 1.764 5.052-2.498 1.25-20.353 4.686-20.353 4.686-.735 3.001-3.51 7.839-3.51 7.839 1.459 1.165 8.783 9.948 11.705 16.974 7.467 8.195 19.906 22.913 22.4 29.718C-15.074-7.258-1.021-1.329-.287-1.029.436-.667.73-.08 0 0m-87.545-64.926c1.322-2.414-1.31-1.328-3.51-.226-2.199 1.249-1.611 1.978-7.172-.368-5.709-2.187-21.884-3.803-25.322-4.239-3.363-.446-2.197.583-1.322 1.894-3.221-3.946-19.981-16.826-27.875-21.579-.522-.815-1.109-1.391.949-.369 2.26 1.239 19.906 11.712 26.051 18.874 10.971.158 26.943 2.712 31.035 4.685 3.957-1.611 12.434-.424 13.756-.142.883.215 1.176.441 1.176.876-1.176 1.024-6.155-.876-7.766.594m-46.256 14.193c.446 1.022 1.91 3.815 2.934 5.194 1.09 1.395 1.248.661.803-.588-.448-1.164-.215-1.091 1.543 1.396 1.677 2.414 4.972 3.589 8.41 2.34 3.369-1.159 18.963-1.39 28.039 2.933 0 0 0 .147-.153.294-.441.588-1.029.724-1.605.43-8.637-3.946-23.5-3.369-27.74-1.685-3.588 1.255-4.024.521-5.494-.361-5.42-3.504-32.053-29.199-36.444-32.499-2.052-1.459-2.498-2.635-3.007-3.211.294-.882 3.007.441 5.426 2.34 3.063 2.487 25.026 23.563 26.191 24.733 1.175 1.176 1.543.583 1.097-1.316m84.465 58.335c-1.17.514-1.17.214-1.17.214-.289-.135-.877.221-.142.809.736.588 3.509 1.396 4.974.808 1.469-.435 1.899-.662 1.606-.22-.295.361-1.459.808-2.34.949-1.03 0-.588.361 1.176 1.312 4.396 2.204 33.664 9.077 42.74 10.84v.147c-1.463 2.046-43.035-9.665-46.262-10.829-3.07-1.176-5.998-2.346-6.291-7.319-.435-4.98-6.578-18.738-9.512-22.106-3.07-3.369-6.879-6.297-8.484-6.591-1.764-.294-2.635-2.486-2.635-2.486 0 1.464.871 1.752 0 2.486-.892.73-3.232.882-4.396 2.634-1.176 1.464-3.811 6.149-5.862 7.394-.435-.657-1.316-1.685-2.345-1.097-1.024.44-1.164 1.322-1.448 2.046-.593.3-.892.3-1.328.3-.588-.153-.14-1.182-.14-1.758 0-.447.576-.447.576-.736.892-.734 1.469-1.61 1.764-2.344.287-.871 3.369-2.488 4.679-2.488 1.469.3.293-1.17-1.31-1.463-1.612-.289-2.635-1.312-2.489-1.606.289-.152.43-1.904 1.018-2.78.441-.736 1.023-.877 1.91-.294.871.576 2.635.146 4.092-.442 1.465-.734 1.176-1.028.588-1.537-.588-.52-.588-1.605-.147-1.096.576.576 1.606 1.096 1.606.508 0-.655-1.752-2.854-1.899-4.318-.148-1.311.735-2.707 1.606-4.092.881-1.611 1.762-4.912 2.346-2.866.734 1.911.734 7.84 1.468 10.033.582 2.272 1.752 4.386 4.391 4.98 2.635.434 10.096 8.929 14.053 16.984 3.808 8.049 3.214 15.509 7.607 16.024" style="fill:#e9e5e8;fill-opacity:1;fill-rule:nonzero;stroke:none" transform="translate(577.615 478.877)"/><path d="M0 0c-.588.582-4.537 3.368-6.289 4.397-.149-.305-.149-.735-.149-1.181.149-.582-.287-.876-.88-.876-.295 0-.43-.148-.588-.148 1.029-1.164 3.662-3.729 3.814-4.244.289-.582.582-1.469 1.158-.582.594.729 2.346 1.458 3.082 1.605C.883-.95.883-.588 0 0" style="fill:#ba2e69;fill-opacity:1;fill-rule:nonzero;stroke:none" transform="translate(483.191 463.718)"/><path d="M0 0c-.588.141-5.414 3.069-6.443 3.725-.875.667-3.51 2.272-4.532 3.006-1.029.876-3.742 1.752-3.81.142-.069-1.611.594-1.826.881-1.165.295.583 1.029.583 1.9 0 .881-.588 5.867-3.668 6.889-4.323C-4.098.729-.588-1.611-.293-1.758c.293-.147.887-.661.887.073C.594-.888.594-.446 0 0" style="fill:#f5f014;fill-opacity:1;fill-rule:nonzero;stroke:none" transform="translate(484.95 465.77)"/><path d="M0 0c-.441-.221-1.471.515-1.758 1.097-.447.519-1.894 1.831-2.629 2.046-.593.158-2.056.813-2.345 1.684 0 .949.877 0 1.464-.141.288-.147.588.299.434.734-.146.356-1.898 2.629-2.773 2.934-1.03.429-1.618-.305-1.03-.893.436-.436.881-.436 1.317-.87.3-.583 0-.583-.594-.882-.43-.289-1.752-1.905-.287-2.928 1.469-1.029 3.08-4.397 3.221-5.415.3-1.17 1.464-.882 1.751-.588.153.294.448.294.6-.146 0-.289.729-.289 1.606.146.875.441-.153.735-.153 1.47 0 .724 1.028 1.243 1.317 1.458C.588-.146.588.3 0 0m-8.49-5.121c-.588 0-.875.294-1.899 1.317-1.029.876-2.787.876-3.369 1.611-.734.735.582 1.605 1.606 1.684 1.029.073.734 1.233.293 1.391-.44.294-1.028 1.458-2.192 2.046-.883.734-1.176-.147-.588-.876 0 0 .44-.436.588-.735.293-.435.293-.802-.148-.877-.44-.14-1.61-.44-2.78-.734-1.175-.294-1.029-2.634-.3-2.928.886-.367 1.617-.734 2.492-1.605.736-.588 1.764-3.662 2.193-4.611.295-.957 1.471-.521 1.471 0 0 .586.287.949 1.17.801 1.021-.14 2.633.442 1.316 1.024-1.316.588 0 1.61.436 1.837.287.214.152.576-.289.655" style="fill:#cb9219;fill-opacity:1;fill-rule:nonzero;stroke:none" transform="translate(523.012 409.554)"/><path d="M0 0v1.391c-1.457.661-3.357 1.684-3.516 1.82-.287.158-1.457.294-.429-.871.724-.881 2.041-2.34 2.488-2.995C-.293-.655 0-.44 0 0" style="fill:#ba2e69;fill-opacity:1;fill-rule:nonzero;stroke:none" transform="translate(476.166 467.086)"/></g></svg>